<svg enable-background="new 0 0 24 24" height="512" viewBox="0 0 24 24" width="512" xmlns="http://www.w3.org/2000/svg"><circle cx="11" cy="13" fill="#4caf50" r="10.5"/><path d="m11 24c-6.065 0-11-4.935-11-11s4.935-11 11-11c2.108 0 4.16.602 5.934 1.739.349.224.45.688.227 1.036-.224.348-.689.45-1.036.226-1.533-.981-3.304-1.501-5.125-1.501-5.238 0-9.5 4.262-9.5 9.5s4.262 9.5 9.5 9.5 9.5-4.262 9.5-9.5c0-.313-.015-.623-.044-.928-.04-.412.262-.779.675-.818.409-.053.778.262.818.674.034.353.051.71.051 1.072 0 6.065-4.935 11-11 11z"/><path d="m12.25 15.5c-.192 0-.384-.073-.53-.22l-4.5-4.5c-.293-.293-.293-.768 0-1.061s.768-.293 1.061 0l3.97 3.97 10.469-10.469c.293-.293.768-.293 1.061 0s.293.768 0 1.061l-11 11c-.147.146-.339.219-.531.219z"/></svg>