<?xml version="1.0" encoding="iso-8859-1"?>
<!-- Generator: Adobe Illustrator 19.0.0, SVG Export Plug-In . SVG Version: 6.00 Build 0)  -->
<svg version="1.1" id="Capa_1" xmlns="http://www.w3.org/2000/svg" xmlns:xlink="http://www.w3.org/1999/xlink" x="0px" y="0px"
	 viewBox="0 0 512 512" style="enable-background:new 0 0 512 512;" xml:space="preserve">
<path style="fill:#0789DE;" d="M256,0v512c141.385,0,256-114.615,256-256S397.385,0,256,0z"/>
<path style="fill:#2EA2EF;" d="M470.793,256C470.793,114.615,374.626,0,256,0C114.615,0,0,114.615,0,256s114.615,256,256,256
	C374.626,512,470.793,397.385,470.793,256z"/>
<polygon style="fill:#DEF1FF;" points="405.891,192.129 374.986,192.129 344.08,256 374.986,319.871 405.891,319.871 "/>
<polygon style="fill:#FFFFFF;" points="202.946,192.129 202.946,145.771 92.716,256 202.946,366.229 202.946,319.871 
	374.986,319.871 374.986,192.129 "/>
<g>
</g>
<g>
</g>
<g>
</g>
<g>
</g>
<g>
</g>
<g>
</g>
<g>
</g>
<g>
</g>
<g>
</g>
<g>
</g>
<g>
</g>
<g>
</g>
<g>
</g>
<g>
</g>
<g>
</g>
</svg>
