<svg height="512" viewBox="0 0 512 512" width="512" xmlns="http://www.w3.org/2000/svg" xmlns:xlink="http://www.w3.org/1999/xlink"><linearGradient id="a" gradientUnits="userSpaceOnUse" x1="-6.642" x2="499.768" y1="500.295" y2="-6.114" data-name="New Gradient Swatch 1"><stop offset="0" stop-color="#003f8a"/><stop offset=".518" stop-color="#00d7df"/><stop offset="1" stop-color="#006df0"/></linearGradient><linearGradient id="b" x1="34.531" x2="540.941" xlink:href="#a" y1="541.469" y2="35.059"/><linearGradient id="c" x1="12.531" x2="518.941" xlink:href="#a" y1="519.469" y2="13.059"/><g><path d="m476 64h-20v-36a20.02 20.02 0 0 0 -20-20h-360a20.02 20.02 0 0 0 -20 20v36h-20a28.031 28.031 0 0 0 -28 28v304a28.031 28.031 0 0 0 28 28h153.39l-11.42 40h-33.97a8 8 0 0 0 -8 8v24a8 8 0 0 0 8 8h224a8 8 0 0 0 8-8v-24a8 8 0 0 0 -8-8h-33.97l-11.42-40h153.39a28.031 28.031 0 0 0 28-28v-304a28.031 28.031 0 0 0 -28-28zm-404-36a4 4 0 0 1 4-4h360a4 4 0 0 1 4 4v7.57l-184 115-184-115zm276.49 83.63 91.51-57.2v205.57a4 4 0 0 1 -4 4h-14.95zm54.84 152.37h-294.66l68.49-143.84 74.6 46.62a7.978 7.978 0 0 0 8.48 0l74.6-46.62zm-331.33-209.57 91.51 57.2-72.56 152.37h-14.95a4 4 0 0 1 -4-4zm288 425.57v8h-208v-8zm-165.39-16 11.42-40h99.94l11.42 40zm293.39-68a12.01 12.01 0 0 1 -12 12h-440a12.01 12.01 0 0 1 -12-12v-20h464zm0-36h-464v-268a12.01 12.01 0 0 1 12-12h20v180a20.02 20.02 0 0 0 20 20h204v40a8 8 0 0 0 16 0v-40h140a20.02 20.02 0 0 0 20-20v-180h20a12.01 12.01 0 0 1 12 12z" fill="url(#a)"/><path d="m256 352a8 8 0 0 0 8-8v-48a8 8 0 0 0 -16 0v48a8 8 0 0 0 8 8z" fill="url(#b)"/><path d="m224 328a8 8 0 0 0 8-8v-24a8 8 0 0 0 -16 0v24a8 8 0 0 0 8 8z" fill="url(#c)"/></g></svg>