<?xml version="1.0" encoding="iso-8859-1"?>
<!-- Generator: Adobe Illustrator 19.0.0, SVG Export Plug-In . SVG Version: 6.00 Build 0)  -->
<svg version="1.1" id="Capa_1" xmlns="http://www.w3.org/2000/svg" xmlns:xlink="http://www.w3.org/1999/xlink" x="0px" y="0px"
	 viewBox="0 0 512 512" style="enable-background:new 0 0 512 512;" xml:space="preserve">
<g>
	<path style="fill:#EAEAEA;" d="M248.608,44.063c-3.694,0-6.689-2.994-6.689-6.689v-10.29c0-3.694,2.994-6.689,6.689-6.689
		c3.694,0,6.689,2.994,6.689,6.689v10.29C255.297,41.069,252.301,44.063,248.608,44.063z"/>
	<path style="fill:#EAEAEA;" d="M278.285,52.016c-1.712,0-3.424-0.652-4.729-1.959c-2.612-2.612-2.613-6.847,0-9.459l5.145-5.145
		c2.612-2.612,6.846-2.613,9.459,0c2.612,2.612,2.613,6.847,0,9.459l-5.145,5.145C281.709,51.362,279.998,52.016,278.285,52.016z"/>
	<path style="fill:#EAEAEA;" d="M218.93,52.016c-1.712,0-3.424-0.653-4.729-1.959l-5.145-5.145c-2.613-2.613-2.612-6.847,0-9.459
		c2.614-2.613,6.848-2.612,9.459,0l5.145,5.145c2.613,2.613,2.612,6.847,0,9.459C222.352,51.362,220.641,52.016,218.93,52.016z"/>
</g>
<g>
	<path style="fill:#50515B;" d="M161.68,504.282c0,4.26-3.447,7.718-7.718,7.718h-26.745c-2.696,0-5.207-1.41-6.596-3.725
		c-1.399-2.305-1.492-5.176-0.247-7.574c2.758-5.269,5.207-10.517,7.368-15.724c33.104-79.452,1.163-149.302,0.813-150.043
		c-1.811-3.859-0.154-8.459,3.705-10.27c3.859-1.811,8.459-0.154,10.27,3.705c0.412,0.895,10.259,22.134,14.17,54.899
		c3.025,25.366,2.789,61.989-12.338,101.71c-1.461,3.828-3.067,7.697-4.816,11.587h14.417
		C158.232,496.565,161.68,500.012,161.68,504.282z"/>
	<path style="fill:#50515B;" d="M85.675,504.282c0,4.26-3.458,7.718-7.718,7.718H51.213c-2.706,0-5.207-1.41-6.606-3.725
		c-1.399-2.305-1.482-5.176-0.237-7.574c2.758-5.269,5.197-10.517,7.358-15.724c33.104-79.441,1.173-149.302,0.823-150.043
		c-1.811-3.859-0.154-8.459,3.705-10.27c3.859-1.811,8.459-0.154,10.259,3.705c0.422,0.895,10.27,22.134,14.18,54.899
		c3.025,25.366,2.789,61.989-12.338,101.71c-1.461,3.828-3.067,7.697-4.816,11.587h14.417
		C82.218,496.565,85.675,500.012,85.675,504.282z"/>
</g>
<path style="fill:#EF4A6E;" d="M158.249,329.877c0,0-39.659,19.829-79.812,12.071c-15.024-2.892-30.12-9.652-43.23-22.762
	c0,0,12.564-84.165,36.109-133.352c3.128-6.534,6.452-12.451,9.971-17.473l14.643,1.132l29.595,2.295
	c0,4.116,0.525,12.173,1.605,22.68C130.794,230.4,140.858,295.106,158.249,329.877z"/>
<path style="fill:#D8254F;" d="M78.437,341.947c-15.024-2.892-30.12-9.652-43.23-22.762c0,0,16.125-108.028,46.08-150.825
	l14.643,1.132l4.24,4.188C89.211,196.185,63.547,283.272,78.437,341.947z"/>
<g>
	<path style="fill:#FCD2BE;" d="M244.157,71.338v39.103c0,1.008-0.196,2.017-0.587,2.953c-0.35,0.834-5.968,14.221-17.092,31.704
		c-5.814,9.148-13.13,19.408-21.98,29.595c-31.818,36.582-69.542,55.66-109.705,55.66c-3.684,0-7.388-0.154-11.114-0.484
		c-4.25-0.36-7.388-4.106-7.018-8.356c0.37-4.24,4.116-7.388,8.356-7.018c39.741,3.447,76.015-13.357,107.832-49.939
		c8.541-9.817,15.59-19.788,21.116-28.587c8.232-13.048,13.151-23.534,14.756-27.146V71.338c0-4.27,3.458-7.718,7.718-7.718
		S244.157,67.067,244.157,71.338z"/>
	<path style="fill:#FCD2BE;" d="M172.799,31.54v77.939c0,35.718-28.967,64.685-64.695,64.685c-9.57,0-18.646-2.079-26.817-5.804
		v-0.01c-19.768-9.014-34.205-27.691-37.261-50.001c-2.871-1.008-5.567-2.655-7.872-4.96c-8.15-8.14-8.15-21.352,0-29.492
		c8.14-8.16,21.363-8.16,29.513,0L71.1,52.748l3.705-21.208L172.799,31.54L172.799,31.54z"/>
</g>
<path style="fill:#FAB998;" d="M81.288,168.35c-19.768-9.014-34.205-27.691-37.261-50.001c-2.871-1.008-5.567-2.655-7.872-4.96
	c-8.15-8.14-8.15-21.352,0-29.492c8.14-8.16,21.363-8.16,29.513,0L71.1,52.748l17.03,3.458
	C80.969,68.585,50.725,113.77,81.288,168.35z"/>
<path style="fill:#6B4B3D;" d="M203.043,0c0,31.046-25.17,56.206-56.206,56.206H88.131v5.217c0,12.41-10.064,22.464-22.474,22.464
	c-6.01-6.01-14.787-7.584-22.237-4.723V56.206C43.419,25.17,68.589,0,99.625,0H203.043z"/>
<path style="fill:#5B3D2D;" d="M145.498,0H99.625C68.589,0,43.419,25.17,43.419,56.206v22.958c7.45-2.861,16.228-1.286,22.237,4.723
	c12.41,0,22.474-10.054,22.474-22.464v-5.217h1.162C89.292,25.17,114.463,0,145.498,0z"/>
<g>
	<path style="fill:#50515B;" d="M117.589,102.08c-4.262,0-7.718-3.455-7.718-7.718v-10.7c0-4.262,3.455-7.718,7.718-7.718
		c4.262,0,7.718,3.455,7.718,7.718v10.7C125.306,98.624,121.851,102.08,117.589,102.08z"/>
	<path style="fill:#50515B;" d="M145.407,102.08c-4.262,0-7.718-3.455-7.718-7.718v-10.7c0-4.262,3.455-7.718,7.718-7.718
		c4.262,0,7.718,3.455,7.718,7.718v10.7C153.124,98.624,149.669,102.08,145.407,102.08z"/>
</g>
<path style="fill:#FFFFFF;" d="M120.536,150.409c-0.139,0-0.278-0.003-0.418-0.011c-14.822-0.791-26.155-7.329-32.77-18.906
	c-2.115-3.7-0.829-8.415,2.872-10.53s8.414-0.829,10.53,2.872c3.995,6.991,10.599,10.638,20.191,11.151
	c4.256,0.227,7.522,3.862,7.295,8.118C128.017,147.219,124.61,150.409,120.536,150.409z"/>
<path style="fill:#D8254F;" d="M226.478,145.099c-5.814,9.148-13.13,19.408-21.98,29.595c-31.818,36.582-69.542,55.66-109.705,55.66
	c-3.684,0-7.388-0.154-11.114-0.484c-4.25-0.36-7.388-4.106-7.018-8.356c0.37-4.24,4.116-7.388,8.356-7.018
	c39.741,3.447,76.015-13.357,107.832-49.939c8.541-9.817,15.59-19.788,21.116-28.587L226.478,145.099z"/>
<g>
	<path style="fill:#3D8299;" d="M85.675,504.282c0,4.26-3.458,7.718-7.718,7.718H51.213c-2.706,0-5.207-1.41-6.606-3.725
		c-1.399-2.305-1.482-5.176-0.237-7.574c2.758-5.269,5.197-10.517,7.358-15.724h16.629c-1.461,3.828-3.067,7.697-4.816,11.587
		h14.417C82.218,496.565,85.675,500.012,85.675,504.282z"/>
	<path style="fill:#3D8299;" d="M161.68,504.282c0,4.26-3.447,7.718-7.718,7.718h-26.745c-2.696,0-5.207-1.41-6.596-3.725
		c-1.399-2.305-1.492-5.176-0.247-7.574c2.758-5.269,5.207-10.517,7.368-15.724h16.619c-1.461,3.828-3.067,7.697-4.816,11.587
		h14.417C158.232,496.565,161.68,500.012,161.68,504.282z"/>
</g>
<g>
	<path style="fill:#FCD2BE;" d="M358.675,222.33c-1.084,0-2.183-0.229-3.231-0.713c-63.137-29.159-99.887-104.671-101.421-107.871
		c-0.498-1.041-0.757-2.181-0.757-3.335V71.307c0-4.262,3.454-7.718,7.718-7.718s7.718,3.455,7.718,7.718v37.277
		c5.447,10.633,39.84,74.369,93.215,99.019c3.87,1.787,5.558,6.373,3.77,10.243C364.384,220.668,361.592,222.33,358.675,222.33z"/>
	<path style="fill:#FCD2BE;" d="M383.035,508.254c-1.399,2.305-3.9,3.715-6.596,3.715h-26.745c-4.26,0-7.718-3.458-7.718-7.718
		c0-4.26,3.458-7.718,7.718-7.718h14.406c-1.749-3.879-3.344-7.728-4.816-11.556c-17.113-44.763-15.497-86.089-10.445-114.521
		c0.751-4.198,4.764-6.987,8.953-6.246c4.198,0.741,6.997,4.754,6.246,8.942c-4.898,27.588-6.318,68.194,11.875,111.825
		c2.161,5.197,4.61,10.434,7.358,15.703C384.527,503.068,384.434,505.939,383.035,508.254z"/>
	<path style="fill:#FCD2BE;" d="M433.334,508.254c-1.399,2.305-3.9,3.715-6.596,3.715h-26.755c-4.27,0-7.718-3.458-7.718-7.718
		c0-4.26,3.447-7.718,7.718-7.718H414.4c-1.749-3.869-3.344-7.728-4.806-11.556c-17.123-44.783-15.508-86.099-10.445-114.552
		c0.751-4.188,4.764-6.987,8.953-6.236c4.198,0.741,6.997,4.754,6.246,8.953c-4.908,27.578-6.339,68.184,11.865,111.835
		c2.171,5.197,4.62,10.434,7.368,15.703C434.826,503.068,434.733,505.939,433.334,508.254z"/>
</g>
<path style="fill:#6B4B3D;" d="M439.027,240.069l-15.734-22.536L309.678,54.843c-5.279-19.552-3.221-54.817,51.318-54.817
	c12.029,0,24.007,0.216,35.491,1.41c40.595,4.219,75.058,20.684,83.876,83.249C491.683,164.95,439.027,240.069,439.027,240.069z"/>
<path style="fill:#5B3D2D;" d="M439.027,240.069l-15.734-22.536c4.013-45.195,15.878-211.744-26.806-216.097
	c40.595,4.219,75.058,20.684,83.876,83.249C491.683,164.95,439.027,240.069,439.027,240.069z"/>
<path style="fill:#00C7A9;" d="M309.858,369.727c44.866,10.27,83.208,9.179,109.499,5.835c23.74-3.025,37.652-7.893,37.652-7.893
	c0-136.861-53.016-200.692-53.016-200.692l-11.762,1.297l-34.174,3.787C351.215,249.783,309.858,369.727,309.858,369.727z"/>
<path style="fill:#04AF92;" d="M419.358,375.562c23.74-3.025,37.652-7.893,37.652-7.893c0-136.861-53.016-200.692-53.016-200.692
	l-11.762,1.297l-2.531,4.034C389.701,172.306,437.407,274.542,419.358,375.562z"/>
<g>
	<path style="fill:#FCD2BE;" d="M410.174,316.734c-12.289,0-21.736-8.156-28.552-14.04c-4.124-3.56-8.765-7.6-11.313-7.391
		c-1.222,0.1-3.019,1.473-4.929,3.764c-2.729,3.274-7.595,3.715-10.87,0.987c-3.274-2.729-3.716-7.596-0.987-10.87
		c4.811-5.772,9.888-8.802,15.523-9.264c8.956-0.735,15.928,5.276,22.662,11.091c9.423,8.136,15.67,12.912,24.949,8.736
		c2.281-1.026,3.539-2.509,4.206-4.957c1.169-4.291,1.309-14.999-10.87-38.505c-7.4-14.281-15.702-26.041-15.784-26.158
		c-2.465-3.477-1.644-8.294,1.833-10.76c3.473-2.464,8.291-1.647,10.758,1.83c3.706,5.222,35.995,51.772,28.96,77.639
		c-1.873,6.889-6.288,12.072-12.768,14.987C418.418,315.881,414.149,316.734,410.174,316.734z"/>
	<path style="fill:#FCD2BE;" d="M446.323,113.364c-2.305,2.305-5.001,3.951-7.872,4.96c-3.622,26.446-23.225,47.788-48.756,53.983
		c-4.908,1.204-10.043,1.832-15.322,1.832c-35.728,0-64.695-28.967-64.695-64.685V54.843c0,0,28.679,1.029,39.998-10.29
		c16.434,21.332,37.786,24.306,51.946,23.38c0-0.01,0-0.01,0-0.01c9.066-0.597,15.189-2.789,15.189-2.789v18.739l0.01-0.01
		c6.01-6.01,14.787-7.584,22.237-4.723c2.645,1.008,5.125,2.593,7.265,4.734C454.473,92.012,454.473,105.224,446.323,113.364z"/>
</g>
<path style="fill:#FAB998;" d="M446.323,113.364c-2.305,2.305-5.001,3.951-7.872,4.96c-3.622,26.446-23.225,47.788-48.756,53.983
	c33.598-18.43,12.215-103.232,11.926-104.375c0-0.01,0-0.01,0-0.01c9.066-0.597,15.189-2.789,15.189-2.789v18.739l0.01-0.01
	c6.01-6.01,14.787-7.584,22.237-4.723c2.645,1.008,5.125,2.593,7.265,4.734C454.473,92.012,454.473,105.224,446.323,113.364z"/>
<g>
	<path style="fill:#50515B;" d="M364.894,102.055c-4.263,0-7.718-3.455-7.718-7.718v-10.7c0-4.262,3.454-7.718,7.718-7.718
		c4.263,0,7.718,3.455,7.718,7.718v10.7C372.612,98.6,369.156,102.055,364.894,102.055z"/>
	<path style="fill:#50515B;" d="M337.075,102.055c-4.263,0-7.718-3.455-7.718-7.718v-10.7c0-4.262,3.454-7.718,7.718-7.718
		c4.263,0,7.718,3.455,7.718,7.718v10.7C344.793,98.6,341.338,102.055,337.075,102.055z"/>
</g>
<path style="fill:#FFFFFF;" d="M361.946,150.385c-4.074,0-7.48-3.19-7.699-7.306c-0.227-4.256,3.039-7.891,7.296-8.118
	c9.591-0.512,16.195-4.159,20.19-11.151c2.116-3.7,6.831-4.986,10.529-2.872c3.701,2.115,4.988,6.829,2.872,10.53
	c-6.616,11.577-17.946,18.115-32.77,18.906C362.225,150.381,362.085,150.385,361.946,150.385z"/>
<g>
	<path style="fill:#F9CE55;" d="M383.271,500.681c1.255,2.387,1.163,5.258-0.237,7.574c-1.399,2.305-3.9,3.715-6.596,3.715h-26.745
		c-4.26,0-7.718-3.458-7.718-7.718c0-4.26,3.458-7.718,7.718-7.718h14.406c-1.749-3.879-3.344-7.728-4.816-11.556h16.629
		C378.075,490.174,380.524,495.412,383.271,500.681z"/>
	<path style="fill:#F9CE55;" d="M433.334,508.254c-1.399,2.305-3.9,3.715-6.596,3.715h-26.755c-4.27,0-7.718-3.458-7.718-7.718
		c0-4.26,3.447-7.718,7.718-7.718H414.4c-1.749-3.869-3.344-7.728-4.806-11.556h16.619c2.171,5.197,4.62,10.434,7.368,15.703
		C434.826,503.068,434.733,505.939,433.334,508.254z"/>
</g>
<g>
</g>
<g>
</g>
<g>
</g>
<g>
</g>
<g>
</g>
<g>
</g>
<g>
</g>
<g>
</g>
<g>
</g>
<g>
</g>
<g>
</g>
<g>
</g>
<g>
</g>
<g>
</g>
<g>
</g>
</svg>
