<?xml version="1.0" encoding="iso-8859-1"?>
<!-- Generator: Adobe Illustrator 19.0.0, SVG Export Plug-In . SVG Version: 6.00 Build 0)  -->
<svg version="1.1" id="Capa_1" xmlns="http://www.w3.org/2000/svg" xmlns:xlink="http://www.w3.org/1999/xlink" x="0px" y="0px"
	 viewBox="0 0 512.002 512.002" style="enable-background:new 0 0 512.002 512.002;" xml:space="preserve">
<path style="fill:#FCD2BE;" d="M439.766,38.672v76.783c0,35.188-28.538,63.725-63.736,63.725c-9.428,0-18.369-2.048-26.419-5.718
	v-0.01c-19.474-8.881-33.698-27.28-36.708-49.259c-2.828-0.993-5.484-2.616-7.755-4.886c-8.029-8.019-8.029-21.036,0-29.055
	c8.019-8.039,21.046-8.039,29.075,0l5.353-30.687l3.65-20.894L439.766,38.672L439.766,38.672z"/>
<path style="fill:#FAB998;" d="M349.612,173.452c-19.474-8.881-33.698-27.28-36.708-49.259c-2.828-0.993-5.484-2.616-7.755-4.886
	c-8.029-8.019-8.029-21.036,0-29.055c8.019-8.039,21.046-8.039,29.075,0l5.353-30.687l16.778,3.406
	C349.298,75.168,319.503,119.682,349.612,173.452z"/>
<path style="fill:#50515B;" d="M469.561,7.6c0,30.585-24.797,55.372-55.372,55.372h-57.835v5.14
	c0,12.226-9.915,22.131-22.141,22.131c-5.92-5.92-14.568-7.471-21.908-4.653V62.972c0-30.575,24.797-55.372,55.372-55.372
	C367.677,7.6,469.561,7.6,469.561,7.6z"/>
<path style="fill:#393A42;" d="M412.87,7.6h-45.193c-30.575,0-55.372,24.797-55.372,55.372v22.617
	c7.34-2.818,15.987-1.267,21.908,4.653c12.226,0,22.141-9.905,22.141-22.131v-5.14h1.145C357.498,32.397,382.295,7.6,412.87,7.6z"/>
<path style="fill:#F9CE55;" d="M425.432,332.583c0,0-39.071,19.535-78.628,11.892c-14.801-2.849-29.673-9.509-42.588-22.425
	c0,0,12.378-82.916,35.573-131.374c3.082-6.437,6.356-12.267,9.823-17.214l14.426,1.115l29.156,2.261
	c0,4.055,0.517,11.993,1.581,22.343C398.384,234.583,408.299,298.328,425.432,332.583z"/>
<path style="fill:#E2A11E;" d="M346.804,344.475c-14.801-2.849-29.673-9.509-42.588-22.425c0,0,15.886-106.425,45.396-148.588
	l14.426,1.115l4.177,4.126C357.418,200.875,332.135,286.67,346.804,344.475z"/>
<path style="fill:#F9CE55;" d="M317.311,61.655l-97.332,30.16l-43.298,13.422c-23.874-59.822-3.508-97.585,64.425-97.585
	C309.029,7.652,317.311,38.339,317.311,61.655z"/>
<path style="fill:#E2A11E;" d="M219.98,91.815l-43.298,13.422c-23.874-59.822-3.508-97.585,64.425-97.585
	C216.959,14.535,201.662,64.95,219.98,91.815z"/>
<path style="fill:#FCD2BE;" d="M317.311,61.655v53.801c0,35.188-28.538,63.725-63.736,63.725c-5.201,0-10.259-0.618-15.095-1.805
	c-25.152-6.103-44.464-27.128-48.032-53.182c-2.828-0.993-5.484-2.616-7.755-4.886c-8.029-8.019-8.029-21.036,0-29.055
	c2.109-2.109,4.552-3.67,7.157-4.663c7.34-2.818,15.987-1.267,21.908,4.653c0-3.933,2.2-11.79,7.33-19.829
	C231.426,51.082,260.743,30.746,317.311,61.655z"/>
<path style="fill:#FAB998;" d="M238.481,177.377c-25.152-6.103-44.464-27.128-48.032-53.182c-2.828-0.993-5.484-2.616-7.755-4.886
	c-8.029-8.019-8.029-21.036,0-29.055c2.109-2.109,4.552-3.67,7.157-4.663c7.34-2.818,15.987-1.267,21.908,4.653
	c0-3.933,2.2-11.79,7.33-19.829C213.31,106.93,214.211,161.633,238.481,177.377z"/>
<path style="fill:#00C7A9;" d="M317.139,371.868c-44.2,10.117-81.973,9.043-107.875,5.748c-23.388-2.98-37.094-7.776-37.094-7.776
	c0-134.831,52.229-197.715,52.229-197.715l11.587,1.277l33.667,3.731C276.396,253.703,317.139,371.868,317.139,371.868z"/>
<path style="fill:#04AF92;" d="M209.265,377.616c-23.388-2.98-37.094-7.776-37.094-7.776c0-134.831,52.229-197.715,52.229-197.715
	l11.587,1.277l2.494,3.974C238.481,177.377,191.483,278.095,209.265,377.616z"/>
<path style="fill:#3FACC9;" d="M190.195,61.655c5.205-19.262,3.176-54.002-50.553-54.002S33.197,11.981,22.046,91.055
	s40.722,153.079,40.722,153.079"/>
<path style="fill:#369AB2;" d="M62.769,244.133l15.5-22.201C74.315,177.407,62.627,13.329,104.678,9.041
	c-39.993,4.156-73.944,20.377-82.632,82.014C10.894,170.128,62.769,244.133,62.769,244.133z"/>
<path style="fill:#FCD2BE;" d="M55.582,119.308c2.271,2.271,4.927,3.893,7.755,4.886c3.568,26.054,22.881,47.079,48.032,53.182
	c4.836,1.186,9.894,1.805,15.095,1.805c35.198,0,63.736-28.538,63.736-63.725V61.655c0,0-28.254,1.014-39.405-10.138
	C134.605,72.533,113.57,75.463,99.62,74.55c0-0.01,0-0.01,0-0.01c-8.931-0.588-14.963-2.747-14.963-2.747v18.461l-0.01-0.01
	c-5.92-5.92-14.568-7.471-21.908-4.653c-2.605,0.993-5.049,2.555-7.157,4.663C47.553,98.273,47.553,111.289,55.582,119.308z"/>
<path style="fill:#FAB998;" d="M55.582,119.308c2.271,2.271,4.927,3.893,7.755,4.886c3.568,26.054,22.881,47.079,48.032,53.182
	C78.27,159.22,99.336,75.676,99.62,74.55c0-0.01,0-0.01,0-0.01c-8.931-0.588-14.963-2.747-14.963-2.747v18.461l-0.01-0.01
	c-5.92-5.92-14.568-7.471-21.908-4.653c-2.605,0.993-5.049,2.555-7.157,4.663C47.553,98.273,47.553,111.289,55.582,119.308z"/>
<path style="fill:#EF4A6E;" d="M190.023,371.868c-44.2,10.117-81.973,9.043-107.875,5.748c-23.388-2.98-37.094-7.776-37.094-7.776
	c0-134.831,52.229-197.715,52.229-197.715l11.587,1.277l33.667,3.731C149.279,253.703,190.023,371.868,190.023,371.868z"/>
<path style="fill:#D8254F;" d="M82.148,377.616c-23.388-2.98-37.094-7.776-37.094-7.776c0-134.831,52.229-197.715,52.229-197.715
	l11.587,1.277l2.494,3.974C111.365,177.377,64.366,278.095,82.148,377.616z"/>
<path d="M328.528,31.425c1.945,0,3.892-0.742,5.377-2.227c9.021-9.022,21.014-13.99,33.774-13.99h20.861
	c4.2,0,7.603-3.404,7.603-7.603s-3.403-7.603-7.603-7.603h-20.861c-16.821,0-32.634,6.55-44.528,18.444
	c-2.969,2.969-2.969,7.784,0.001,10.752C324.636,30.683,326.582,31.425,328.528,31.425z"/>
<path d="M412.87,15.208h48.479c-3.652,22.738-23.41,40.161-47.161,40.161h-57.836c-4.2,0-7.603,3.404-7.603,7.603v5.137
	c0,7.449-5.8,13.805-13.203,14.473c-4.182,0.376-7.267,4.072-6.891,8.254c0.356,3.951,3.673,6.922,7.564,6.922
	c0.229,0,0.458-0.01,0.691-0.031c14.593-1.314,25.788-12.789,26.947-27.151h50.332c34.724,0,62.972-28.249,62.972-62.972
	c0-4.199-3.403-7.603-7.603-7.603h-56.688c-4.2,0-7.603,3.404-7.603,7.603S408.67,15.208,412.87,15.208z"/>
<path d="M392.978,100.563V90.021c0-4.199-3.403-7.603-7.603-7.603s-7.603,3.404-7.603,7.603v10.541c0,4.199,3.403,7.603,7.603,7.603
	S392.978,104.762,392.978,100.563z"/>
<path d="M420.383,100.563V90.021c0-4.199-3.403-7.603-7.603-7.603s-7.603,3.404-7.603,7.603v10.541c0,4.199,3.403,7.603,7.603,7.603
	S420.383,104.762,420.383,100.563z"/>
<path d="M368.786,129.598c-2.084-3.647-6.729-4.913-10.373-2.829c-3.647,2.083-4.914,6.727-2.829,10.374
	c6.517,11.406,17.68,17.846,32.283,18.625c0.138,0.007,0.275,0.011,0.412,0.011c4.012,0,7.37-3.144,7.585-7.199
	c0.224-4.193-2.994-7.774-7.188-7.998C379.359,140.085,372.667,136.389,368.786,129.598z"/>
<path d="M447.37,115.455V79.618c0-4.199-3.403-7.603-7.603-7.603s-7.603,3.404-7.603,7.603v35.837
	c0,30.946-25.181,56.122-56.132,56.122c-17.14,0-33.12-7.685-43.843-21.085c-2.623-3.279-7.409-3.81-10.686-1.186
	c-3.279,2.624-3.811,7.409-1.186,10.687c13.623,17.026,33.932,26.791,55.716,26.791C415.367,186.784,447.37,154.786,447.37,115.455z
	"/>
<path d="M332.382,188.566c-13.479,28.652-23.267,68.241-29.104,96.406c-0.853,4.112,1.79,8.136,5.901,8.988
	c0.521,0.107,1.039,0.159,1.551,0.159c3.528,0,6.693-2.471,7.437-6.061c5.672-27.362,15.128-65.711,27.974-93.019
	c1.788-3.8,0.156-8.329-3.643-10.116C338.696,183.134,334.169,184.766,332.382,188.566z"/>
<path d="M493.352,222.564c-0.326-0.082-2.952-0.691-6.803-0.352v-8.155c0-4.199-3.403-7.603-7.603-7.603s-7.603,3.404-7.603,7.603
	v14.282c-6.024,4.65-12.154,12.631-16.769,26.184c-2.841,8.341-7.913,12.756-15.509,13.496
	c-10.824,1.054-23.723-5.766-28.439-12.653c-3.765-19.87-6.559-39.954-8.296-56.987c-0.426-4.178-4.149-7.222-8.335-6.793
	c-4.177,0.426-7.219,4.157-6.792,8.335c1.478,14.503,9.477,85.548,28.052,128.763c-15.296,5.988-53.645,17.865-86.074,2.039
	c-3.773-1.843-8.326-0.275-10.167,3.499c-1.841,3.773-0.275,8.326,3.499,10.168c1.659,0.809,3.326,1.552,5,2.243
	c5.705,13.609,30.372,81.394-9.141,154.134c-1.279,2.356-1.224,5.212,0.147,7.516c1.372,2.304,3.854,3.716,6.535,3.716h26.351
	c4.2,0,7.603-3.404,7.603-7.603c0-4.199-3.403-7.603-7.603-7.603H337.39c19.395-41.725,19.963-80.81,16.7-107.139
	c-1.943-15.67-5.374-28.567-8.357-37.624c6.887,1.311,13.733,1.869,20.371,1.869c11.825,0,22.976-1.745,32.516-4.024
	c7.288,19.019,26.557,82.785-10.44,150.891c-1.279,2.356-1.224,5.212,0.147,7.516c1.372,2.304,3.854,3.716,6.535,3.716h26.352
	c4.2,0,7.603-3.404,7.603-7.603c0-4.199-3.403-7.603-7.603-7.603h-14.014c19.396-41.725,19.964-80.81,16.701-107.139
	c-2.46-19.839-7.304-35.229-10.602-44.01c9.043-3.069,14.813-5.9,15.535-6.262c1.803-0.902,3.176-2.483,3.814-4.397
	c0.638-1.913,0.489-4.001-0.413-5.805c-6.55-13.1-12.185-31.337-16.823-51.129c6.553,3.225,14.006,5.281,21.404,5.28
	c1.246,0,2.491-0.059,3.728-0.179c13.573-1.323,23.669-9.75,28.428-23.73c2.217-6.51,4.721-11.12,7.208-14.379l13.266,1.251
	c3.997,0.381,7.617-2.433,8.229-6.414l1.351-8.786C499.619,227.215,497.162,223.517,493.352,222.564z"/>
<path d="M270.523,100.564V90.023c0-4.199-3.403-7.603-7.603-7.603s-7.603,3.404-7.603,7.603v10.541c0,4.199,3.403,7.603,7.603,7.603
	S270.523,104.763,270.523,100.564z"/>
<path d="M297.928,100.564V90.023c0-4.199-3.403-7.603-7.603-7.603s-7.603,3.404-7.603,7.603v10.541c0,4.199,3.403,7.603,7.603,7.603
	S297.928,104.763,297.928,100.564z"/>
<path d="M246.331,129.599c-2.083-3.647-6.728-4.913-10.373-2.829c-3.647,2.083-4.914,6.727-2.829,10.374
	c6.518,11.405,17.68,17.846,32.283,18.626c0.138,0.007,0.275,0.011,0.412,0.011c4.013,0,7.369-3.143,7.585-7.198
	c0.224-4.193-2.994-7.774-7.188-7.998C256.772,140.079,250.267,136.486,246.331,129.599z"/>
<path d="M277.896,496.794h-14.004c19.718-42.332,20.303-82.204,16.169-111.059c12.202-1.283,25.19-3.346,38.776-6.456
	c2.103-0.482,3.903-1.834,4.95-3.721s1.245-4.129,0.541-6.169c-0.345-0.999-34.547-100.722-44.995-174.797
	c-0.586-4.158-4.429-7.054-8.592-6.467c-4.158,0.587-7.053,4.432-6.467,8.591c5.577,39.538,17.704,85.741,26.895,117.539
	c6.61,22.863,12.695,41.783,16.057,51.966c-40.545,8.145-74.837,6.676-97.003,3.852c-4.149-0.529-7.971,2.416-8.502,6.581
	c-0.531,4.166,2.416,7.972,6.581,8.503c2.176,0.277,4.468,0.54,6.859,0.786c4.48,29.079,3.966,70.982-19.85,114.824
	c-1.279,2.356-1.224,5.212,0.147,7.516c1.372,2.304,3.854,3.716,6.535,3.716h26.358c4.2,0,7.603-3.404,7.603-7.603
	c0-4.199-3.403-7.603-7.603-7.603h-14.014c19.408-41.669,20.277-80.934,16.356-109.669c4.922,0.246,10.141,0.389,15.63,0.389
	c5.88,0,12.08-0.171,18.545-0.545c4.306,29.039,3.534,70.477-20.002,113.799c-1.28,2.356-1.225,5.212,0.146,7.516
	c1.372,2.304,3.854,3.716,6.535,3.716h26.348c4.2,0,7.603-3.404,7.603-7.603C285.498,500.2,282.096,496.794,277.896,496.794z"/>
<path d="M206.762,19.785c9.484-3.005,21.038-4.528,34.34-4.528c51.835,0,64.503,18.56,67.601,33.624
	c-21.947-9.92-41.682-13.001-58.78-9.099c-19.642,4.481-31.095,16.907-37.244,26.543c-5.177,8.114-8.524,17.503-8.524,23.919
	c0,4.199,3.403,7.603,7.603,7.603s7.603-3.404,7.603-7.603c0-1.998,1.499-8.474,6.136-15.739
	c9.368-14.681,32.646-34.848,84.211-8.278v49.23c0,30.946-25.181,56.122-56.132,56.122c-4.525,0-8.994-0.533-13.302-1.591
	c-14.252-3.458-26.419-12.238-34.261-24.724c-2.232-3.556-6.927-4.626-10.482-2.395c-3.556,2.233-4.628,6.927-2.394,10.482
	c9.961,15.86,25.428,27.016,43.532,31.409c5.472,1.342,11.162,2.023,16.907,2.023c39.336,0,71.339-31.998,71.339-71.329V61.654
	c0-17.648-4.859-31.097-14.854-41.115C296.305,6.753,273.749,0.05,241.102,0.05c-14.863,0-27.962,1.763-38.934,5.239
	c-4.002,1.268-6.219,5.541-4.951,9.545C198.485,18.837,202.756,21.055,206.762,19.785z"/>
<path d="M206.33,185.913c-9.834,17.342-23.441,46.958-32.417,89.569c-0.866,4.109,1.764,8.142,5.873,9.007
	c0.528,0.111,1.055,0.165,1.575,0.165c3.519,0,6.678-2.457,7.432-6.038c8.573-40.701,21.462-68.798,30.765-85.202
	c2.072-3.653,0.79-8.293-2.862-10.365C213.04,180.979,208.401,182.26,206.33,185.913z"/>
<path d="M89.58,183.05c-3.655-2.071-8.295-0.79-10.365,2.863c-12.902,22.749-29.911,62.083-37.674,120.28
	c-0.555,4.163,2.369,7.986,6.532,8.542c0.341,0.046,0.679,0.068,1.015,0.068c3.752,0,7.017-2.778,7.527-6.599
	c7.44-55.781,23.589-93.211,35.827-114.789C94.514,189.762,93.231,185.122,89.58,183.05z"/>
<path d="M196.669,375.559c1.047-1.887,1.245-4.129,0.541-6.17c-0.345-0.999-34.543-100.69-44.995-174.797
	c-0.587-4.158-4.431-7.054-8.592-6.467c-4.158,0.587-7.053,4.432-6.467,8.591c5.577,39.538,17.704,85.741,26.895,117.539
	c6.61,22.863,12.695,41.783,16.057,51.966c-63.202,12.691-112.006,2.136-127.421-2.043c0.111-9.873,0.511-19.667,1.194-29.191
	c0.301-4.189-2.852-7.827-7.04-8.127c-4.179-0.297-7.826,2.852-8.127,7.04c-0.839,11.703-1.265,23.795-1.265,35.941
	c0,3.231,2.043,6.109,5.091,7.176c1.315,0.46,18.044,6.167,45.515,8.998c4.468,29.077,3.936,70.946-19.86,114.753
	c-1.279,2.356-1.224,5.212,0.147,7.516c1.372,2.304,3.854,3.716,6.535,3.716h26.358c4.2,0,7.603-3.404,7.603-7.603
	c0-4.199-3.403-7.603-7.603-7.603H87.223c19.39-41.633,20.276-80.867,16.365-109.596c4.921,0.247,10.08,0.391,15.478,0.391
	c5.957,0,12.204-0.178,18.696-0.562c4.297,29.036,3.51,70.448-20.011,113.741c-1.28,2.356-1.225,5.212,0.146,7.516
	c1.372,2.304,3.854,3.716,6.535,3.716h26.347c4.2,0,7.603-3.404,7.603-7.603c0-4.199-3.403-7.603-7.603-7.603h-14.003
	c19.71-42.314,20.303-82.169,16.175-111.021c12.223-1.304,25.191-3.386,38.769-6.494
	C193.822,378.798,195.622,377.446,196.669,375.559z"/>
<path d="M143.407,100.564V90.023c0-4.199-3.403-7.603-7.603-7.603s-7.603,3.404-7.603,7.603v10.541c0,4.199,3.403,7.603,7.603,7.603
	S143.407,104.763,143.407,100.564z"/>
<path d="M155.606,90.023v10.541c0,4.199,3.403,7.603,7.603,7.603s7.603-3.404,7.603-7.603V90.023c0-4.199-3.403-7.603-7.603-7.603
	S155.606,85.823,155.606,90.023z"/>
<path d="M119.215,129.599c-2.083-3.647-6.728-4.913-10.373-2.829c-3.647,2.083-4.914,6.727-2.829,10.374
	c6.518,11.405,17.68,17.846,32.283,18.626c0.138,0.007,0.275,0.011,0.412,0.011c4.012,0,7.369-3.144,7.585-7.198
	c0.224-4.193-2.994-7.774-7.188-7.998C129.657,140.079,123.151,136.486,119.215,129.599z"/>
<path d="M49.902,229.936c1.192,0,2.401-0.281,3.528-0.873c3.717-1.952,5.149-6.548,3.197-10.266
	c-13.224-25.187-34.322-75.137-27.053-126.679c10.04-71.201,53.845-76.86,110.068-76.86c19.089,0,32.268,4.571,39.171,13.587
	c6.19,8.085,6.137,18.422,5.19,25.143c-8.719-0.413-22.214-2.225-27.833-7.845c-1.547-1.547-3.682-2.354-5.868-2.211
	c-2.183,0.141-4.199,1.216-5.533,2.949C122.049,76.388,88.6,65.121,87.217,64.637c-2.331-0.834-4.919-0.484-6.942,0.94
	c-2.022,1.424-3.227,3.744-3.227,6.217v5.7c-5.534-1.407-11.483-1.134-17.023,0.992c-3.682,1.404-6.987,3.554-9.821,6.389
	c-5.321,5.314-8.252,12.384-8.252,19.907c0,7.522,2.931,14.592,8.248,19.902c1.895,1.896,4.005,3.487,6.307,4.759
	c6.569,32.975,35.916,57.343,69.953,57.343c39.336,0,71.339-31.998,71.339-71.329V84.69c0-4.199-3.403-7.603-7.603-7.603
	s-7.603,3.404-7.603,7.603v30.768c0,30.946-25.181,56.122-56.132,56.122c-27.91,0-51.811-20.815-55.595-48.416
	c-0.387-2.825-2.323-5.196-5.013-6.141c-1.851-0.65-3.499-1.689-4.902-3.093c-2.444-2.442-3.79-5.69-3.79-9.147
	c0-3.457,1.346-6.706,3.795-9.151c1.312-1.312,2.822-2.3,4.505-2.942c4.774-1.834,10.192-0.682,13.75,2.875
	c2.158,2.213,5.443,2.898,8.308,1.733c2.864-1.166,4.737-3.95,4.737-7.043v-8.781c16.358,2.589,40.845,0.304,59.755-19.681
	c14.342,8.041,35.702,7.561,38.457,7.462c3.332-0.12,6.198-2.397,7.068-5.615c2.124-7.858,5.726-27.88-6.648-44.041
	c-9.932-12.971-27.173-19.548-51.245-19.548c-26.929,0-55.151,0.996-78.247,12.892C35.265,26.403,19.931,51.606,14.517,89.993
	C6.653,145.758,29.09,199.057,43.164,225.865C44.524,228.455,47.167,229.936,49.902,229.936z"/>
<path d="M78.185,313.968c4.507,2.028,8.713,2.868,12.628,2.868c12.104-0.001,21.415-8.036,28.128-13.832
	c4.063-3.508,8.7-7.481,11.144-7.281c1.204,0.098,2.974,1.451,4.856,3.708c2.688,3.226,7.483,3.661,10.708,0.972
	s3.661-7.483,0.972-10.708c-4.739-5.686-9.741-8.672-15.292-9.127c-8.834-0.725-15.691,5.198-22.326,10.925
	c-9.284,8.016-15.44,12.718-24.58,8.607c-2.248-1.012-3.486-2.472-4.143-4.883c-3.818-14.023,14.081-46.517,26.259-63.704
	c2.429-3.425,1.621-8.17-1.802-10.599c-3.426-2.43-8.172-1.622-10.601,1.802c-3.651,5.145-35.46,51.005-28.529,76.489
	C67.452,305.99,71.802,311.096,78.185,313.968z"/>
<g>
</g>
<g>
</g>
<g>
</g>
<g>
</g>
<g>
</g>
<g>
</g>
<g>
</g>
<g>
</g>
<g>
</g>
<g>
</g>
<g>
</g>
<g>
</g>
<g>
</g>
<g>
</g>
<g>
</g>
</svg>
