<svg height="512" viewBox="0 0 512 512" width="512" xmlns="http://www.w3.org/2000/svg" xmlns:xlink="http://www.w3.org/1999/xlink"><linearGradient id="a" gradientUnits="userSpaceOnUse" x1="9.5" x2="499.602" y1="502.5" y2="12.398" data-name="New Gradient Swatch 1"><stop offset="0" stop-color="#003f8a"/><stop offset=".518" stop-color="#00d7df"/><stop offset="1" stop-color="#006df0"/></linearGradient><linearGradient id="b" x1="-16.5" x2="473.602" xlink:href="#a" y1="476.5" y2="-13.602"/><g><path d="m476 96h-440a28.031 28.031 0 0 0 -28 28v264a28.031 28.031 0 0 0 28 28h440a28.031 28.031 0 0 0 28-28v-264a28.031 28.031 0 0 0 -28-28zm-440 16h440a12.006 12.006 0 0 1 11.96 11.22l-231.96 123.71-231.96-123.71a12.006 12.006 0 0 1 11.96-11.22zm452 276a12.01 12.01 0 0 1 -12 12h-440a12.01 12.01 0 0 1 -12-12v-246.67l228.24 121.73a7.99 7.99 0 0 0 7.52 0l228.24-121.73z" fill="url(#a)"/><path d="m176 312h-128a8 8 0 0 0 -8 8v56a8 8 0 0 0 8 8h128a8 8 0 0 0 8-8v-56a8 8 0 0 0 -8-8zm-8 56h-112v-40h112z" fill="url(#b)"/></g></svg>