<svg height="512" viewBox="0 0 512 512" width="512" xmlns="http://www.w3.org/2000/svg" xmlns:xlink="http://www.w3.org/1999/xlink"><linearGradient id="a" gradientUnits="userSpaceOnUse" x1="32.566" x2="507.803" y1="517.566" y2="42.329" data-name="New Gradient Swatch 1"><stop offset="0" stop-color="#003f8a"/><stop offset=".518" stop-color="#00d7df"/><stop offset="1" stop-color="#006df0"/></linearGradient><linearGradient id="b" x1="31.5" x2="506.737" xlink:href="#a" y1="516.5" y2="41.263"/><linearGradient id="c" x1="-114.5" x2="360.737" xlink:href="#a" y1="370.5" y2="-104.737"/><linearGradient id="d" x1="-50.5" x2="424.737" xlink:href="#a" y1="434.5" y2="-40.737"/><linearGradient id="e" x1="-38.5" x2="436.737" xlink:href="#a" y1="446.5" y2="-28.737"/><linearGradient id="g" x1="-.5" x2="474.737" xlink:href="#a" y1="484.5" y2="9.263"/><linearGradient id="h" x1="-10.5" x2="464.737" xlink:href="#a" y1="474.5" y2="-.737"/><linearGradient id="i" x1="1.5" x2="476.737" xlink:href="#a" y1="486.5" y2="11.263"/><linearGradient id="k" x1="39.5" x2="514.737" xlink:href="#a" y1="524.5" y2="49.263"/><g><path d="m499.76 184.94-83.76-44.67v-124.27a8 8 0 0 0 -8-8h-304a8 8 0 0 0 -8 8v124.27l-83.76 44.67a7.993 7.993 0 0 0 -4.24 7.06v284a28.031 28.031 0 0 0 28 28h440a28.031 28.031 0 0 0 28-28v-284a7.993 7.993 0 0 0 -4.24-7.06zm-387.76-160.94h288v234.13l-144 76.8-144-76.8zm-88 172.8 72-38.4v91.2l-72-38.4zm464 279.2a12.01 12.01 0 0 1 -12 12h-440a12.01 12.01 0 0 1 -12-12v-246.67l228.24 121.73a7.99 7.99 0 0 0 7.52 0l228.24-121.73zm0-264.8-72 38.4v-91.2l72 38.4z" fill="url(#a)"/><path d="m176 400h-128a8 8 0 0 0 -8 8v56a8 8 0 0 0 8 8h128a8 8 0 0 0 8-8v-56a8 8 0 0 0 -8-8zm-8 56h-112v-40h112z" fill="url(#b)"/><path d="m136 104h96a8 8 0 0 0 8-8v-48a8 8 0 0 0 -8-8h-96a8 8 0 0 0 -8 8v48a8 8 0 0 0 8 8zm8-48h80v32h-80z" fill="url(#c)"/><path d="m136 136h240a8 8 0 0 0 0-16h-240a8 8 0 0 0 0 16z" fill="url(#d)"/><path d="m136 160h240a8 8 0 0 0 0-16h-240a8 8 0 0 0 0 16z" fill="url(#e)"/><path d="m136 184h144a8 8 0 0 0 0-16h-144a8 8 0 0 0 0 16z" fill="url(#d)"/><path d="m304 168a8 8 0 0 0 0 16h8a8 8 0 0 0 0-16z" fill="url(#g)"/><path d="m136 216h240a8 8 0 0 0 0-16h-240a8 8 0 0 0 0 16z" fill="url(#h)"/><path d="m136 240h240a8 8 0 0 0 0-16h-240a8 8 0 0 0 0 16z" fill="url(#i)"/><path d="m136 264h144a8 8 0 0 0 0-16h-144a8 8 0 0 0 0 16z" fill="url(#h)"/><path d="m312 248h-8a8 8 0 0 0 0 16h8a8 8 0 0 0 0-16z" fill="url(#k)"/></g></svg>